<?xml version="1.0" standalone="no"?>
<!DOCTYPE svg PUBLIC "-//W3C//DTD SVG 20010904//EN"
 "http://www.w3.org/TR/2001/REC-SVG-20010904/DTD/svg10.dtd">
<svg version="1.0" xmlns="http://www.w3.org/2000/svg"
 width="400.000000pt" height="400.000000pt" viewBox="0 0 400.000000 400.000000"
 preserveAspectRatio="xMidYMid meet">
<g transform="translate(0.000000,400.000000) scale(0.100000,-0.100000)"
fill="#000000" stroke="none">
<path d="M1971 3094 c-36 -25 -26 -42 24 -42 44 0 54 9 37 34 -13 19 -39 23
-61 8z"/>
<path d="M1953 3009 c-45 -13 -76 -61 -76 -116 0 -55 27 -93 80 -112 48 -17
81 -10 121 27 95 89 2 238 -125 201z m111 -50 c57 -67 18 -159 -67 -159 -53 0
-97 43 -97 95 0 86 110 129 164 64z"/>
<path d="M1980 2952 c-41 -14 -52 -70 -19 -101 54 -50 127 33 75 84 -16 16
-39 23 -56 17z m48 -48 c5 -31 -19 -54 -45 -43 -25 9 -30 38 -11 57 17 17 53
8 56 -14z"/>
<path d="M1990 2912 c0 -7 5 -12 11 -12 6 0 8 -9 4 -22 -5 -21 -5 -21 6 -4 9
14 8 21 -5 34 -10 11 -16 12 -16 4z"/>
<path d="M1970 2896 c0 -8 4 -17 9 -20 5 -4 7 3 4 14 -6 23 -13 26 -13 6z"/>
<path d="M1825 2900 c-13 -21 -122 -64 -173 -68 -29 -3 -73 1 -98 8 -40 11
-47 11 -62 -4 -15 -15 -15 -17 -1 -32 46 -45 158 -36 276 22 60 30 73 41 73
60 0 26 -5 30 -15 14z m-263 -92 c-11 -11 -55 -1 -47 11 2 5 16 6 30 3 17 -3
23 -8 17 -14z m72 -7 c3 -5 -10 -9 -29 -9 -19 0 -32 4 -29 9 3 5 16 9 29 9 13
0 26 -4 29 -9z"/>
<path d="M2150 2896 c0 -56 188 -135 286 -120 58 8 83 27 68 51 -7 11 -21 17
-35 15 -118 -15 -156 -13 -208 8 -30 11 -67 30 -83 41 -23 17 -28 18 -28 5z
m324 -80 c-3 -8 -12 -12 -19 -10 -7 3 -16 1 -20 -5 -8 -14 -52 -14 -61 0 -4 8
3 9 25 4 19 -4 31 -3 31 3 0 9 15 16 42 21 4 0 5 -5 2 -13z"/>
<path d="M1485 2740 c-3 -5 -4 -10 -1 -10 2 0 -7 -28 -20 -62 -14 -35 -32 -83
-40 -108 -8 -25 -19 -54 -24 -65 -32 -66 -80 -215 -80 -246 0 -51 49 -115 107
-141 113 -50 255 7 284 114 9 37 6 52 -46 197 -46 124 -116 311 -119 317 -5 8
-56 11 -61 4z m80 -152 c21 -59 41 -105 46 -102 5 3 6 -1 4 -8 -6 -15 32 -123
66 -190 20 -38 20 -40 2 -75 -25 -51 -85 -96 -128 -97 -19 -1 -35 -4 -35 -7 0
-3 -21 -1 -47 4 -58 14 -128 76 -120 107 3 11 1 18 -4 14 -5 -3 -9 10 -8 28 1
25 3 28 7 13 5 -15 16 -20 42 -20 19 0 38 -4 42 -10 5 -6 8 -5 8 3 0 11 23 13
110 11 77 -3 113 0 122 9 9 9 -21 12 -150 12 -108 0 -162 4 -162 11 0 6 9 31
19 57 11 26 34 85 52 132 17 47 42 113 55 147 13 34 24 67 24 74 0 29 19 -11
55 -113z"/>
<path d="M1675 2250 c-3 -5 -1 -10 4 -10 6 0 11 5 11 10 0 6 -2 10 -4 10 -3 0
-8 -4 -11 -10z"/>
<path d="M1508 2143 c6 -2 18 -2 25 0 6 3 1 5 -13 5 -14 0 -19 -2 -12 -5z"/>
<path d="M1568 2133 c6 -2 18 -2 25 0 6 3 1 5 -13 5 -14 0 -19 -2 -12 -5z"/>
<path d="M1478 2123 c7 -3 16 -2 19 1 4 3 -2 6 -13 5 -11 0 -14 -3 -6 -6z"/>
<path d="M2474 2743 c-13 -2 -25 -16 -32 -36 -6 -18 -33 -93 -62 -167 -98
-258 -104 -279 -91 -320 21 -72 109 -132 191 -132 97 0 186 67 197 150 4 32
-9 77 -70 243 -96 258 -100 269 -107 268 -3 -1 -14 -4 -26 -6z m76 -208 c12
-33 37 -99 56 -147 19 -49 34 -91 34 -95 0 -5 -63 -7 -141 -5 -92 2 -145 -1
-154 -8 -19 -16 -25 8 -9 45 24 59 124 332 141 385 2 8 15 -14 27 -50 13 -36
33 -92 46 -125z m110 -276 c0 -16 -4 -28 -9 -25 -5 4 -7 -2 -4 -13 8 -30 -68
-98 -119 -106 -30 -5 -43 -4 -46 5 -4 10 -6 10 -12 0 -12 -19 -61 -3 -104 32
-46 37 -71 90 -57 116 6 9 11 12 11 5 0 -8 44 -12 156 -12 86 -1 161 -4 165
-7 5 -3 9 4 9 15 0 12 2 21 5 21 3 0 5 -14 5 -31z"/>
<path d="M2394 2145 c8 -8 25 -14 38 -14 20 1 21 2 3 6 -11 3 -24 9 -29 14
-17 16 -28 10 -12 -6z"/>
<path d="M2560 2150 c-13 -8 -13 -10 2 -10 9 0 20 5 23 10 8 13 -5 13 -25 0z"/>
<path d="M2498 2123 c7 -3 16 -2 19 1 4 3 -2 6 -13 5 -11 0 -14 -3 -6 -6z"/>
<path d="M1677 2729 c7 -7 15 -10 18 -7 3 3 -2 9 -12 12 -14 6 -15 5 -6 -5z"/>
<path d="M1980 2730 c-7 -4 -10 -12 -6 -18 8 -14 -19 -267 -39 -361 -8 -40
-26 -100 -39 -133 l-24 -59 34 -16 c19 -9 34 -20 34 -25 0 -4 24 -8 53 -8 36
0 60 6 77 20 14 11 31 20 38 20 17 0 15 15 -7 58 -37 73 -69 239 -78 404 -6
116 -13 136 -43 118z m18 -195 c-4 -45 -2 -55 9 -51 8 3 12 2 9 -2 -12 -19 37
-231 64 -283 11 -19 8 -25 -16 -45 -33 -29 -83 -31 -125 -7 -32 19 -34 29 -17
70 6 15 13 35 14 43 2 17 27 94 39 124 5 12 5 17 -1 13 -6 -3 -8 8 -6 29 2 18
8 31 13 28 5 -2 8 10 7 28 -3 52 1 108 8 108 4 0 4 -25 2 -55z"/>
<path d="M1980 2416 c0 -8 4 -17 9 -20 5 -4 7 3 4 14 -6 23 -13 26 -13 6z"/>
<path d="M1977 2331 c-4 -17 -3 -21 5 -13 5 5 8 16 6 23 -3 8 -7 3 -11 -10z"/>
<path d="M2011 2314 c0 -11 3 -14 6 -6 3 7 2 16 -1 19 -3 4 -6 -2 -5 -13z"/>
<path d="M1992 2290 c0 -14 2 -19 5 -12 2 6 2 18 0 25 -3 6 -5 1 -5 -13z"/>
<path d="M2032 2280 c0 -14 2 -19 5 -12 2 6 2 18 0 25 -3 6 -5 1 -5 -13z"/>
<path d="M1672 2620 c0 -14 2 -19 5 -12 2 6 2 18 0 25 -3 6 -5 1 -5 -13z"/>
<path d="M1752 2410 c0 -14 2 -19 5 -12 2 6 2 18 0 25 -3 6 -5 1 -5 -13z"/>
<path d="M2241 2264 c0 -11 3 -14 6 -6 3 7 2 16 -1 19 -3 4 -6 -2 -5 -13z"/>
<path d="M1370 2089 c0 -5 5 -7 10 -4 6 3 10 8 10 11 0 2 -4 4 -10 4 -5 0 -10
-5 -10 -11z"/>
<path d="M1995 2072 l-91 -3 2 -46 2 -46 92 0 92 0 2 47 c1 26 -1 48 -4 49 -3
1 -46 1 -95 -1z m43 -29 c-21 -2 -55 -2 -75 0 -21 2 -4 4 37 4 41 0 58 -2 38
-4z m28 -20 c-15 -4 -16 -7 -5 -14 9 -5 -14 -8 -61 -7 -54 1 -64 3 -35 7 l40
5 -45 6 c-36 6 -27 7 40 7 47 1 76 -2 66 -4z"/>
<path d="M1787 1934 c-12 -12 -8 -92 5 -100 19 -12 407 -9 419 3 6 6 9 30 7
54 l-3 44 -211 3 c-115 1 -213 -1 -217 -4z m408 -49 l0 -30 -190 0 c-175 0
-190 1 -193 18 -9 43 -3 45 195 43 l188 -1 0 -30z"/>
<path d="M2825 1670 c-3 -5 -1 -10 4 -10 6 0 11 5 11 10 0 6 -2 10 -4 10 -3 0
-8 -4 -11 -10z"/>
<path d="M2870 1670 c-9 -6 -10 -10 -3 -10 6 0 15 5 18 10 8 12 4 12 -15 0z"/>
<path d="M838 1653 c7 -3 16 -2 19 1 4 3 -2 6 -13 5 -11 0 -14 -3 -6 -6z"/>
<path d="M2472 1630 c0 -14 2 -19 5 -12 2 6 2 18 0 25 -3 6 -5 1 -5 -13z"/>
<path d="M1330 1611 c-25 -7 -25 -8 -25 -122 0 -63 -4 -120 -8 -127 -5 -7 -6
-23 -3 -35 5 -20 13 -23 65 -25 66 -3 91 12 91 54 0 28 -24 42 -44 25 -10 -9
-13 9 -12 100 1 101 -1 112 -19 124 -12 7 -31 9 -45 6z m41 -33 c7 -61 7 -87
-1 -110 -6 -20 -6 -28 3 -29 9 0 9 -2 0 -5 -7 -3 -9 -12 -6 -21 4 -11 2 -14
-5 -9 -7 4 -12 2 -12 -3 0 -6 8 -11 18 -11 13 0 14 -2 4 -9 -10 -6 -4 -13 20
-25 l33 -17 -32 5 c-23 4 -35 1 -41 -10 -6 -10 -9 3 -10 38 -1 29 -6 69 -12
88 -13 44 -13 72 0 104 10 27 39 36 41 14z m-52 -242 c-9 -8 -10 -7 -5 7 3 10
7 24 7 30 1 7 3 4 6 -7 3 -10 -1 -23 -8 -30z m76 -6 c13 -6 15 -9 5 -9 -8 0
-22 4 -30 9 -18 12 -2 12 25 0z"/>
<path d="M1334 1515 c-3 -14 -4 -29 0 -32 3 -4 6 5 6 18 1 23 1 23 15 5 9 -11
15 -14 15 -7 0 7 -7 19 -15 27 -13 13 -15 12 -21 -11z"/>
<path d="M2823 1614 c-15 -7 3 -50 24 -58 24 -10 55 13 51 37 -2 17 -11 22
-33 24 -16 1 -35 0 -42 -3z m42 -32 c-3 -3 -11 0 -18 7 -9 10 -8 11 6 5 10 -3
15 -9 12 -12z"/>
<path d="M631 1601 c-8 -5 -15 -29 -17 -55 -2 -44 -1 -46 25 -46 l27 0 -4 -95
c-4 -94 -4 -94 21 -100 58 -15 62 -8 59 98 -3 90 -2 97 16 97 23 0 32 18 32
64 0 33 -1 33 -52 40 -70 8 -90 7 -107 -3z m113 -27 c21 -8 21 -50 0 -58 -9
-3 -19 -4 -24 -1 -5 3 -7 -16 -5 -42 12 -142 11 -147 -10 -150 l-20 -3 20 9
c20 9 20 10 -1 10 -18 1 -20 6 -18 59 1 31 5 68 9 82 5 21 1 27 -25 38 -28 13
-39 39 -23 55 8 9 76 9 97 1z"/>
<path d="M698 1353 c7 -3 16 -2 19 1 4 3 -2 6 -13 5 -11 0 -14 -3 -6 -6z"/>
<path d="M824 1604 c-8 -3 -10 -49 -8 -147 3 -114 6 -144 19 -152 10 -7 20 -6
32 1 13 8 16 25 14 93 -2 74 0 83 14 77 9 -3 19 -6 21 -6 2 0 4 -31 4 -68 0
-83 16 -112 51 -96 22 10 23 15 20 95 -1 52 -8 93 -17 107 -17 26 -55 29 -78
6 -15 -14 -16 -11 -16 28 0 56 -19 77 -56 62z m26 -34 c0 -5 -4 -10 -10 -10
-5 0 -10 5 -10 10 0 6 5 10 10 10 6 0 10 -4 10 -10z m9 -122 c1 -56 0 -100 -3
-97 -9 9 -15 199 -7 199 5 0 9 -46 10 -102z m108 39 c3 -6 1 -7 -5 -3 -7 4 -9
-4 -7 -26 10 -77 11 -128 3 -128 -5 0 -8 6 -7 13 7 52 -3 115 -21 135 -11 12
-20 23 -20 25 0 8 51 -6 57 -16z"/>
<path d="M2033 1603 c-16 -6 -18 -238 -3 -277 10 -27 43 -35 56 -14 10 16 4
259 -7 280 -10 18 -23 21 -46 11z m30 -94 c1 -45 -2 -64 -12 -67 -11 -4 -13 3
-8 28 4 18 7 51 7 73 0 64 11 36 13 -34z m0 -141 c3 -21 2 -38 -2 -38 -4 0 -8
19 -9 42 -2 50 4 47 11 -4z"/>
<path d="M2233 1603 c-10 -3 -13 -43 -13 -149 l0 -144 25 -6 c31 -8 65 19 65
51 0 18 5 20 36 17 26 -3 41 1 59 18 25 23 46 90 41 130 -2 14 -4 31 -5 38 -4
43 -93 70 -121 37 -12 -14 -15 -14 -30 0 -17 15 -34 18 -57 8z m69 -52 c14
-16 15 -21 4 -21 -7 0 -21 10 -30 23 -16 21 -16 21 -2 -8 8 -16 15 -59 16 -95
3 -86 2 -90 -15 -90 -8 0 -15 -5 -15 -11 0 -5 4 -7 10 -4 6 3 7 -1 4 -9 -8
-20 -20 -13 -27 14 -3 11 -2 18 2 16 11 -7 10 168 -1 181 -6 7 -8 20 -4 28 7
19 31 9 58 -24z m83 29 c4 -6 10 -8 15 -5 4 3 11 -2 14 -11 10 -26 7 -124 -4
-124 -5 0 -9 -3 -9 -7 3 -20 -2 -34 -10 -29 -5 4 -11 0 -14 -6 -2 -7 -7 -10
-11 -7 -11 10 6 41 19 35 8 -3 11 2 8 15 -3 10 0 26 7 34 7 9 10 18 6 22 -3 3
-6 1 -6 -5 0 -21 -18 -13 -24 11 -3 12 -19 31 -37 41 l-31 18 24 13 c29 16 45
18 53 5z m-41 -66 c31 -12 10 -114 -23 -114 -4 0 -7 27 -6 60 0 61 2 64 29 54z"/>
<path d="M2272 1390 c0 -14 2 -19 5 -12 2 6 2 18 0 25 -3 6 -5 1 -5 -13z"/>
<path d="M2396 1552 c-2 -4 -1 -14 4 -22 7 -11 9 -9 7 8 -1 24 -3 26 -11 14z"/>
<path d="M3068 1593 c7 -3 16 -2 19 1 4 3 -2 6 -13 5 -11 0 -14 -3 -6 -6z"/>
<path d="M3287 1589 c-12 -7 -15 -17 -11 -34 3 -13 1 -33 -6 -45 -7 -14 -8
-25 -2 -33 5 -7 12 -42 14 -78 4 -73 23 -103 59 -97 32 5 49 36 27 52 -10 7
-17 30 -19 61 -3 45 -1 50 19 53 28 4 32 52 4 52 -13 0 -21 11 -28 37 -9 40
-27 50 -57 32z m33 -34 c0 -8 -4 -15 -10 -15 -5 0 -7 7 -4 15 4 8 8 15 10 15
2 0 4 -7 4 -15z m19 -44 c18 -18 18 -18 0 -30 -30 -18 -32 -17 -34 9 -4 43 6
49 34 21z m-15 -69 c7 -12 -12 -38 -21 -28 -4 5 -2 11 6 14 11 4 11 6 0 13 -9
6 -10 9 -2 9 6 0 14 -4 17 -8z m11 -83 c9 -17 14 -33 11 -37 -3 -3 -6 0 -6 6
0 7 -8 12 -17 12 -15 0 -16 2 -3 10 12 8 12 10 -3 16 -18 7 -23 24 -7 24 5 0
17 -14 25 -31z"/>
<path d="M572 1560 c0 -14 2 -19 5 -12 2 6 2 18 0 25 -3 6 -5 1 -5 -13z"/>
<path d="M1898 1573 c6 -2 18 -2 25 0 6 3 1 5 -13 5 -14 0 -19 -2 -12 -5z"/>
<path d="M2633 1525 c0 -8 4 -12 9 -9 5 3 6 10 3 15 -9 13 -12 11 -12 -6z"/>
<path d="M1073 1511 c-40 -25 -53 -49 -53 -100 0 -54 17 -87 51 -101 35 -15
86 -4 99 20 14 27 13 30 -14 30 -28 0 -56 9 -56 19 0 3 13 12 29 19 38 17 56
64 38 101 -16 33 -52 38 -94 12z m65 -19 c18 -16 19 -21 8 -43 -7 -13 -18 -23
-24 -21 -7 1 -12 -2 -12 -7 0 -5 -7 -11 -15 -15 -12 -4 -15 3 -15 29 0 41 25
49 39 13 8 -21 10 -21 16 -5 5 11 1 25 -9 36 -29 32 -21 41 12 13z m-81 -48
c-3 -3 -1 -18 4 -32 7 -18 6 -28 -3 -34 -10 -7 -10 -8 2 -6 8 1 31 -8 50 -20
36 -23 35 -31 -2 -11 -18 10 -20 9 -15 -5 10 -25 -11 -19 -29 9 -19 29 -27
105 -11 105 6 0 8 -3 4 -6z"/>
<path d="M1506 1497 c-33 -32 -36 -39 -36 -91 0 -47 4 -61 25 -81 31 -32 75
-32 112 -1 15 13 26 27 23 29 -8 9 -120 16 -120 8 0 -3 12 -8 27 -9 36 -3 39
-8 8 -14 -38 -8 -56 16 -53 67 3 40 18 54 18 16 0 -24 28 -59 37 -46 5 6 20
16 35 24 60 31 54 123 -8 129 -24 2 -40 -5 -68 -31z m81 6 c-4 -3 -2 -12 4
-19 7 -8 7 -14 -1 -19 -5 -3 -10 -2 -10 4 0 5 -10 13 -22 17 l-23 8 25 7 c35
10 34 10 27 2z m-17 -57 c0 -15 -35 -58 -41 -51 -3 2 -3 22 -1 44 4 36 6 40
23 30 10 -5 19 -16 19 -23z m-3 -122 c-3 -3 -12 -4 -19 -1 -8 3 -5 6 6 6 11 1
17 -2 13 -5z"/>
<path d="M1686 1496 c-32 -30 -36 -39 -36 -83 0 -36 5 -55 18 -66 21 -19 48
-22 57 -7 3 5 13 6 22 3 9 -4 14 -2 11 3 -3 5 3 27 13 49 l18 40 0 -31 c1 -20
-8 -41 -24 -58 -14 -15 -25 -32 -25 -38 0 -6 -14 -8 -35 -6 -27 3 -35 0 -35
-12 0 -43 82 -57 116 -19 28 31 34 211 8 240 -26 29 -67 24 -108 -15z m68 -1
c-4 -8 -2 -15 4 -15 6 0 13 6 15 13 4 7 6 6 6 -5 1 -9 4 -24 8 -34 5 -13 -2
-11 -22 9 -17 15 -34 27 -40 27 -5 0 -3 5 5 10 22 14 30 12 24 -5z m-12 -72
c2 -24 0 -47 -4 -49 -18 -11 -28 10 -28 56 0 65 26 60 32 -7z m-57 27 c3 -5 1
-10 -4 -10 -6 0 -11 5 -11 10 0 6 2 10 4 10 3 0 8 -4 11 -10z m5 -30 c0 -5 -2
-10 -4 -10 -3 0 -8 5 -11 10 -3 6 -1 10 4 10 6 0 11 -4 11 -10z m0 -31 c0 -7
8 -18 18 -25 9 -7 12 -14 5 -14 -6 0 -15 5 -18 10 -4 6 -10 8 -14 6 -3 -3 -7
4 -7 15 0 10 4 19 8 19 4 0 8 -5 8 -11z m80 -88 c-29 -42 -34 -39 -8 4 11 20
23 34 25 31 3 -3 -5 -19 -17 -35z"/>
<path d="M1872 1512 c-11 -10 -22 -27 -24 -37 -2 -17 3 -20 36 -20 46 0 59
-20 19 -30 -40 -10 -63 -34 -63 -66 0 -29 23 -59 45 -59 7 0 21 7 30 16 15 15
17 15 29 -1 16 -23 56 -12 56 16 0 10 -5 19 -11 19 -5 0 -8 4 -4 9 3 6 6 37 6
71 1 45 -3 66 -16 81 -23 24 -75 25 -103 1z m82 -17 c11 -8 14 -15 7 -15 -7 0
-9 -5 -4 -12 12 -20 14 -88 2 -88 -6 0 -9 6 -6 14 3 8 1 17 -6 20 -9 3 -9 7 1
14 10 6 6 15 -14 35 -15 15 -32 27 -38 28 -6 0 -2 4 9 9 27 12 27 11 49 -5z
m-26 -112 c-3 -30 -25 -42 -34 -19 -6 17 11 46 28 46 5 0 8 -12 6 -27z m40
-38 c1 -21 -1 -23 -12 -13 -7 7 -11 19 -9 25 8 21 18 15 21 -12z"/>
<path d="M1920 1490 c0 -5 5 -10 11 -10 5 0 7 5 4 10 -3 6 -8 10 -11 10 -2 0
-4 -4 -4 -10z"/>
<path d="M2469 1523 c0 -5 0 -51 1 -103 2 -103 12 -127 50 -115 19 6 21 13 20
78 -1 40 -1 76 -1 81 1 4 12 1 26 -8 25 -17 26 -16 39 16 8 17 12 38 9 45 -7
19 -50 16 -63 -4 -10 -17 -10 -17 -20 0 -11 17 -59 25 -61 10z m50 -54 c-7 -4
-10 -29 -8 -63 2 -31 1 -56 -3 -56 -5 0 -9 26 -10 58 0 31 -2 64 -3 72 -3 27
8 34 22 15 9 -13 10 -21 2 -26z m51 21 c0 -5 -5 -10 -11 -10 -5 0 -7 5 -4 10
3 6 8 10 11 10 2 0 4 -4 4 -10z m17 -12 c-3 -8 -6 -5 -6 6 -1 11 2 17 5 13 3
-3 4 -12 1 -19z"/>
<path d="M2677 1496 c-57 -55 -59 -142 -5 -180 53 -37 116 0 127 75 19 123
-46 179 -122 105z m71 4 c-2 -19 4 -23 13 -10 9 12 10 12 5 -4 -4 -11 -1 -23
6 -28 7 -4 8 -8 2 -8 -5 0 -22 13 -37 28 -24 25 -25 28 -8 28 11 0 19 -3 19
-6z m-19 -44 c7 -8 11 -34 9 -58 -4 -58 -30 -59 -42 -1 -13 62 5 93 33 59z
m43 -71 c3 -13 1 -22 -3 -19 -9 5 -13 44 -5 44 2 0 6 -11 8 -25z m-92 -19 c0
-8 10 -22 22 -30 12 -9 18 -16 12 -16 -15 0 -40 23 -47 43 -4 9 -2 17 3 17 6
0 10 -6 10 -14z m75 -25 c-3 -6 -11 -11 -17 -11 -6 0 -6 6 2 15 14 17 26 13
15 -4z"/>
<path d="M2833 1523 c-7 -2 -11 -14 -9 -26 3 -12 7 -64 11 -114 5 -81 4 -93
-10 -93 -28 0 -13 -35 16 -38 49 -6 59 18 59 138 0 60 -3 115 -6 124 -6 15
-36 20 -61 9z m28 -40 c-8 -15 -10 -15 -11 -2 0 17 10 32 18 25 2 -3 -1 -13
-7 -23z m16 -40 c1 -19 -1 -22 -8 -12 -6 10 -9 8 -10 -11 -1 -16 -3 -19 -6 -8
-3 14 12 58 20 58 1 0 3 -12 4 -27z m-7 -85 c0 -18 -2 -20 -9 -8 -6 8 -7 18
-5 22 9 14 14 9 14 -14z m4 -43 c3 -8 1 -15 -4 -15 -6 0 -10 7 -10 15 0 8 2
15 4 15 2 0 6 -7 10 -15z m-14 -35 c0 -5 -5 -10 -11 -10 -5 0 -7 5 -4 10 3 6
8 10 11 10 2 0 4 -4 4 -10z"/>
<path d="M2984 1517 c-12 -6 -29 -23 -38 -38 -20 -34 -21 -118 -1 -146 21 -30
78 -40 110 -19 35 23 32 44 -7 48 -31 3 -54 28 -26 28 23 0 58 44 58 74 0 60
-39 82 -96 53z m64 -19 c16 -16 15 -25 -2 -25 -8 0 -12 6 -9 13 3 9 -3 11 -19
7 -18 -4 -20 -3 -8 6 19 14 23 14 38 -1z m-80 -54 c0 -14 5 -31 11 -37 8 -8
11 -1 11 26 0 26 4 37 15 37 24 0 23 -49 -1 -63 -7 -4 -18 -17 -24 -27 -9 -16
-8 -18 6 -13 12 4 15 3 10 -5 -4 -7 -1 -12 7 -12 7 0 14 -7 14 -15 0 -20 -7
-19 -42 9 -27 21 -28 25 -15 42 8 10 10 15 5 12 -10 -6 -12 17 -7 60 3 22 10
13 10 -14z m83 -7 c-10 -9 -11 -8 -5 6 3 10 9 15 12 12 3 -3 0 -11 -7 -18z"/>
<path d="M3158 1513 c-38 -19 -51 -47 -52 -111 0 -48 3 -57 29 -79 43 -37 114
-22 115 25 0 6 -10 12 -22 12 -39 0 -51 16 -56 71 l-5 54 25 -23 c24 -22 25
-22 41 -4 47 51 -8 91 -75 55z m66 -28 c-3 -7 -12 -11 -19 -8 -11 4 -12 8 -2
18 15 16 28 10 21 -10z m-80 -82 c-4 -16 -4 -25 0 -22 9 8 65 -44 59 -54 -3
-5 -12 0 -20 10 -13 17 -14 17 -9 1 8 -25 -10 -22 -28 4 -18 25 -22 88 -6 88
6 0 8 -11 4 -27z"/>
<path d="M3147 1359 c7 -7 15 -10 18 -7 3 3 -2 9 -12 12 -14 6 -15 5 -6 -5z"/>
<path d="M1445 1509 c-11 -16 -1 -19 13 -3 7 8 8 14 3 14 -5 0 -13 -5 -16 -11z"/>
<path d="M2144 1346 c-3 -8 -1 -23 6 -33 9 -16 10 -15 4 6 -4 15 -1 27 7 32
11 7 11 9 1 9 -7 0 -15 -6 -18 -14z"/>
<path d="M3416 1347 c3 -10 9 -15 12 -12 3 3 0 11 -7 18 -10 9 -11 8 -5 -6z"/>
<path d="M1174 1298 l-19 -23 23 19 c21 18 27 26 19 26 -2 0 -12 -10 -23 -22z"/>
<path d="M2302 1294 c-7 -8 -8 -14 -3 -14 10 0 25 19 20 25 -2 1 -10 -3 -17
-11z"/>
<path d="M3406 1293 c-6 -14 -5 -15 5 -6 7 7 10 15 7 18 -3 3 -9 -2 -12 -12z"/>
<path d="M907 1289 c7 -7 15 -10 18 -7 3 3 -2 9 -12 12 -14 6 -15 5 -6 -5z"/>
<path d="M1772 1170 c0 -14 2 -19 5 -12 2 6 2 18 0 25 -3 6 -5 1 -5 -13z"/>
<path d="M1820 1120 c0 -20 -5 -30 -15 -30 -8 0 -15 -4 -15 -10 0 -5 7 -10 15
-10 11 0 15 -12 15 -50 0 -27 5 -50 10 -50 6 0 10 23 10 50 0 38 4 50 15 50 8
0 15 5 15 10 0 6 -9 10 -21 10 -18 0 -20 4 -14 30 4 19 3 30 -4 30 -6 0 -11
-13 -11 -30z"/>
<path d="M2680 1120 c0 -20 -5 -30 -15 -30 -8 0 -15 -4 -15 -10 0 -5 7 -10 15
-10 11 0 15 -12 15 -49 0 -28 5 -53 11 -57 9 -5 10 9 7 50 -4 49 -2 56 14 56
10 0 18 5 18 10 0 6 -9 10 -19 10 -16 0 -18 5 -15 30 3 17 1 30 -5 30 -6 0
-11 -13 -11 -30z"/>
<path d="M1030 1055 c0 -46 4 -86 9 -89 5 -4 26 0 48 6 34 12 38 17 41 51 4
46 -25 90 -68 105 l-30 11 0 -84z m56 28 c27 -32 32 -78 8 -87 -38 -15 -44 -8
-44 54 0 33 3 60 6 60 4 0 17 -12 30 -27z"/>
<path d="M2423 1078 c4 -35 3 -69 -2 -77 -10 -16 -31 -6 -31 15 0 8 -4 14 -10
14 -19 0 -10 -39 12 -54 36 -26 48 -5 48 85 0 52 -4 79 -11 79 -8 0 -10 -19
-6 -62z"/>
<path d="M1880 1114 c0 -17 22 -14 28 4 2 7 -3 12 -12 12 -9 0 -16 -7 -16 -16z"/>
<path d="M2040 1115 c0 -8 7 -15 15 -15 8 0 15 7 15 15 0 8 -7 15 -15 15 -8 0
-15 -7 -15 -15z"/>
<path d="M2745 1119 c-4 -6 -5 -13 -2 -16 7 -7 27 6 27 18 0 12 -17 12 -25 -2z"/>
<path d="M1485 1110 c-3 -6 1 -7 9 -4 18 7 21 14 7 14 -6 0 -13 -4 -16 -10z"/>
<path d="M1163 1082 c-32 -21 -21 -112 14 -112 25 1 56 27 48 40 -5 8 -12 7
-24 -4 -13 -12 -20 -13 -29 -4 -18 18 -15 26 11 30 16 2 22 10 22 28 0 25 -20
36 -42 22z m31 -21 c3 -5 -1 -12 -10 -15 -20 -8 -29 -1 -19 13 8 13 22 14 29
2z"/>
<path d="M1263 1080 c-13 -5 -20 -16 -18 -27 2 -10 4 -33 4 -50 1 -50 21 -39
21 11 0 25 4 47 9 51 13 7 33 -30 31 -58 -4 -43 0 -54 11 -34 6 9 9 32 7 50
-2 26 0 32 17 32 16 0 21 -8 23 -42 2 -24 7 -43 13 -43 11 0 12 80 1 96 -12
18 -45 26 -53 12 -7 -10 -11 -10 -21 0 -14 14 -15 14 -45 2z"/>
<path d="M1426 1074 c-30 -29 -13 -104 22 -104 28 0 42 21 42 62 0 27 -5 40
-19 48 -25 13 -27 13 -45 -6z m44 -44 c0 -26 -21 -46 -34 -33 -11 11 -6 61 7
66 19 7 27 -2 27 -33z"/>
<path d="M1533 1075 c-16 -11 -23 -26 -23 -49 0 -41 19 -59 54 -50 35 8 33 26
-1 22 -23 -2 -29 1 -31 20 -5 31 14 51 40 44 15 -3 19 -1 16 9 -7 20 -30 22
-55 4z"/>
<path d="M1610 1033 c6 -68 30 -87 30 -23 0 33 4 43 20 47 11 3 20 12 20 19 0
17 -22 18 -37 3 -8 -8 -13 -8 -17 0 -15 24 -21 8 -16 -46z"/>
<path d="M1719 1080 c-40 -23 -29 -114 14 -109 12 2 28 0 35 -4 9 -6 12 5 12
45 0 29 -4 58 -8 63 -10 14 -34 16 -53 5z m37 -66 c-6 -22 -36 -35 -36 -15 0
5 -3 16 -6 24 -3 8 3 22 12 32 16 16 18 16 27 0 5 -9 6 -27 3 -41z"/>
<path d="M1888 1083 c-4 -6 -3 -71 1 -116 1 -5 5 -5 11 -2 12 7 11 113 -1 120
-4 3 -9 2 -11 -2z"/>
<path d="M1937 1084 c-13 -14 5 -23 33 -17 39 7 38 -4 -2 -37 -49 -41 -17 -78
46 -54 27 10 7 24 -27 17 l-32 -6 34 36 c26 28 32 39 23 49 -12 15 -64 22 -75
12z"/>
<path d="M2048 1083 c-1 -4 -2 -32 -2 -60 -1 -36 3 -53 11 -53 16 0 18 106 3
115 -5 3 -11 3 -12 -2z"/>
<path d="M2100 1030 c0 -33 4 -60 10 -60 6 0 10 13 10 29 0 39 9 61 26 61 14
0 18 -21 14 -67 -1 -13 3 -23 9 -23 6 0 11 21 11 49 0 56 -19 82 -45 61 -10
-9 -15 -9 -15 -1 0 6 -4 11 -10 11 -6 0 -10 -27 -10 -60z"/>
<path d="M2232 1074 c-42 -29 -17 -113 29 -99 16 5 18 2 15 -17 -3 -13 -5 -27
-5 -31 -1 -5 -13 -7 -28 -5 -15 2 -28 -2 -30 -9 -6 -16 62 -21 77 -6 3 2 3 41
2 86 -4 96 -16 112 -60 81z m41 -54 c-8 -29 -43 -26 -43 3 0 34 21 52 36 32 7
-9 10 -25 7 -35z"/>
<path d="M2460 1048 c0 -57 12 -73 55 -74 28 -1 35 2 31 13 -4 8 -6 35 -6 59
0 24 -4 44 -10 44 -5 0 -10 -20 -10 -44 0 -28 -5 -46 -14 -49 -21 -8 -26 2
-26 50 0 24 -4 43 -10 43 -5 0 -10 -19 -10 -42z"/>
<path d="M2571 1076 c-16 -19 -4 -43 25 -50 29 -8 27 -30 -2 -32 -35 -2 -39
-5 -16 -15 29 -11 65 6 60 29 -2 9 -16 23 -31 30 -34 16 -26 35 11 25 24 -6
26 -5 13 10 -16 21 -44 22 -60 3z"/>
<path d="M2746 1057 c-7 -37 2 -99 13 -92 11 6 12 113 2 120 -5 2 -12 -10 -15
-28z"/>
<path d="M2810 1070 c-23 -23 -26 -58 -6 -85 12 -16 19 -18 43 -10 15 6 26 15
23 20 -3 6 -7 9 -10 8 -3 -1 -12 -4 -21 -8 -10 -4 -19 0 -23 11 -11 28 3 54
30 54 15 0 24 6 24 15 0 22 -36 19 -60 -5z"/>
<path d="M2902 1078 c-14 -14 -16 -76 -2 -98 12 -19 63 -2 68 24 4 16 2 17
-20 2 -14 -9 -28 -13 -31 -9 -10 9 -8 35 2 29 4 -3 17 1 27 9 15 11 17 17 8
32 -14 23 -36 27 -52 11z m36 -20 c-3 -7 -13 -15 -24 -17 -16 -3 -17 -1 -5 13
16 19 34 21 29 4z"/>
<path d="M3026 1013 c-4 -9 -3 -20 1 -24 4 -4 9 3 9 17 2 28 -1 31 -10 7z"/>
</g>
</svg>
